<svg width="660" height="385" viewBox="0 0 660 385" fill="none" xmlns="http://www.w3.org/2000/svg">
<rect width="660" height="385" fill="#F7F9FB"/>
<path d="M38.2008 59.6668V44.1112H44.0341C45.2291 44.1112 46.2318 44.334 47.0419 44.7796C47.8572 45.2252 48.4724 45.8379 48.8876 46.6177C49.3079 47.3925 49.5181 48.2735 49.5181 49.261C49.5181 50.2585 49.3079 51.1446 48.8876 51.9194C48.4674 52.6941 47.8471 53.3043 47.0267 53.7499C46.2064 54.1904 45.1962 54.4107 43.9961 54.4107H40.13V52.0941H43.6164C44.3152 52.0941 44.8874 51.9726 45.333 51.7295C45.7786 51.4864 46.1077 51.1522 46.3204 50.7269C46.5381 50.3015 46.647 49.8129 46.647 49.261C46.647 48.709 46.5381 48.2229 46.3204 47.8026C46.1077 47.3823 45.776 47.0557 45.3254 46.8228C44.8798 46.5848 44.305 46.4658 43.6012 46.4658H41.0187V59.6668H38.2008ZM51.8442 59.6668V48.0001H54.5102V49.9446H54.6317C54.8444 49.2711 55.209 48.7521 55.7255 48.3875C56.247 48.0178 56.842 47.833 57.5104 47.833C57.6623 47.833 57.832 47.8406 58.0193 47.8558C58.2117 47.8659 58.3712 47.8836 58.4978 47.909V50.4383C58.3814 50.3978 58.1965 50.3623 57.9434 50.3319C57.6952 50.2965 57.4547 50.2788 57.2218 50.2788C56.7205 50.2788 56.2698 50.3876 55.8698 50.6054C55.4748 50.818 55.1634 51.1143 54.9355 51.494C54.7077 51.8738 54.5938 52.3118 54.5938 52.8081V59.6668H51.8442ZM64.9331 59.8946C63.7938 59.8946 62.8064 59.644 61.9709 59.1427C61.1354 58.6414 60.4872 57.9401 60.0264 57.0387C59.5707 56.1374 59.3428 55.0842 59.3428 53.879C59.3428 52.6739 59.5707 51.6181 60.0264 50.7117C60.4872 49.8053 61.1354 49.1015 61.9709 48.6002C62.8064 48.0989 63.7938 47.8482 64.9331 47.8482C66.0724 47.8482 67.0598 48.0989 67.8953 48.6002C68.7308 49.1015 69.3765 49.8053 69.8322 50.7117C70.293 51.6181 70.5234 52.6739 70.5234 53.879C70.5234 55.0842 70.293 56.1374 69.8322 57.0387C69.3765 57.9401 68.7308 58.6414 67.8953 59.1427C67.0598 59.644 66.0724 59.8946 64.9331 59.8946ZM64.9483 57.692C65.5661 57.692 66.0826 57.5223 66.4978 57.1831C66.913 56.8387 67.2219 56.3779 67.4244 55.8007C67.632 55.2234 67.7358 54.5803 67.7358 53.8714C67.7358 53.1574 67.632 52.5118 67.4244 51.9346C67.2219 51.3523 66.913 50.8889 66.4978 50.5446C66.0826 50.2003 65.5661 50.0281 64.9483 50.0281C64.3153 50.0281 63.7887 50.2003 63.3684 50.5446C62.9532 50.8889 62.6418 51.3523 62.4342 51.9346C62.2316 52.5118 62.1304 53.1574 62.1304 53.8714C62.1304 54.5803 62.2316 55.2234 62.4342 55.8007C62.6418 56.3779 62.9532 56.8387 63.3684 57.1831C63.7887 57.5223 64.3153 57.692 64.9483 57.692ZM72.8571 48.0001H75.6067V60.3352C75.6067 61.1757 75.4472 61.8695 75.1281 62.4163C74.8091 62.9632 74.3483 63.3708 73.7458 63.6392C73.1432 63.9076 72.4115 64.0418 71.5507 64.0418C71.4494 64.0418 71.3557 64.0392 71.2696 64.0342C71.1836 64.0342 71.0899 64.0317 70.9886 64.0266V61.7859C71.0646 61.791 71.1329 61.7935 71.1937 61.7935C71.2544 61.7986 71.3177 61.8011 71.3836 61.8011C71.9102 61.8011 72.2874 61.672 72.5153 61.4137C72.7432 61.1606 72.8571 60.7884 72.8571 60.2972V48.0001ZM74.2243 46.3443C73.7837 46.3443 73.4065 46.2 73.0926 45.9114C72.7837 45.6177 72.6292 45.2657 72.6292 44.8556C72.6292 44.4404 72.7837 44.0884 73.0926 43.7998C73.4065 43.5061 73.7837 43.3593 74.2243 43.3593C74.6598 43.3593 75.0319 43.5061 75.3408 43.7998C75.6548 44.0884 75.8117 44.4404 75.8117 44.8556C75.8117 45.2657 75.6548 45.6177 75.3408 45.9114C75.0319 46.2 74.6598 46.3443 74.2243 46.3443ZM83.599 59.8946C82.4293 59.8946 81.4191 59.6516 80.5684 59.1655C79.7228 58.6743 79.0721 57.9806 78.6164 57.0843C78.1606 56.183 77.9328 55.1221 77.9328 53.9018C77.9328 52.7017 78.1606 51.6485 78.6164 50.7421C79.0772 49.8306 79.7203 49.1217 80.5456 48.6153C81.371 48.1039 82.3407 47.8482 83.4547 47.8482C84.1737 47.8482 84.8523 47.9647 85.4903 48.1976C86.1334 48.4255 86.7005 48.7799 87.1917 49.261C87.6879 49.742 88.0778 50.3547 88.3614 51.0991C88.645 51.8384 88.7867 52.7194 88.7867 53.7423V54.5854H79.224V52.7321H86.1511C86.146 52.2055 86.0321 51.7371 85.8093 51.3269C85.5865 50.9117 85.2751 50.5851 84.8751 50.3471C84.4801 50.1091 84.0193 49.9901 83.4927 49.9901C82.9306 49.9901 82.4369 50.1268 82.0116 50.4003C81.5862 50.6687 81.2545 51.0231 81.0166 51.4637C80.7836 51.8991 80.6646 52.3776 80.6596 52.8992V54.517C80.6596 55.1956 80.7836 55.7779 81.0317 56.264C81.2799 56.745 81.6267 57.1147 82.0723 57.3729C82.5179 57.6261 83.0395 57.7527 83.637 57.7527C84.037 57.7527 84.3991 57.697 84.7231 57.5856C85.0472 57.4692 85.3283 57.2995 85.5662 57.0767C85.8042 56.8539 85.984 56.5779 86.1055 56.2488L88.6728 56.5374C88.5108 57.216 88.2019 57.8084 87.7462 58.3148C87.2955 58.8161 86.7182 59.206 86.0144 59.4845C85.3105 59.7579 84.5054 59.8946 83.599 59.8946ZM96.2018 59.8946C95.0372 59.8946 94.0371 59.6389 93.2016 59.1275C92.3712 58.6161 91.7306 57.9097 91.2799 57.0084C90.8343 56.102 90.6115 55.0589 90.6115 53.879C90.6115 52.6941 90.8394 51.6485 91.2951 50.7421C91.7509 49.8306 92.394 49.1217 93.2244 48.6153C94.0599 48.1039 95.0473 47.8482 96.1866 47.8482C97.1335 47.8482 97.9716 48.0229 98.7007 48.3723C99.435 48.7166 100.02 49.2053 100.455 49.8382C100.891 50.4661 101.139 51.2003 101.2 52.0409H98.5716C98.4653 51.4788 98.2121 51.0105 97.8121 50.6357C97.4171 50.256 96.888 50.0661 96.2246 50.0661C95.6625 50.0661 95.1688 50.218 94.7435 50.5218C94.3181 50.8206 93.9865 51.251 93.7485 51.813C93.5156 52.3751 93.3991 53.0486 93.3991 53.8334C93.3991 54.6284 93.5156 55.312 93.7485 55.8842C93.9814 56.4514 94.308 56.8894 94.7283 57.1982C95.1536 57.5021 95.6524 57.654 96.2246 57.654C96.6297 57.654 96.9918 57.578 97.3108 57.4261C97.6348 57.2691 97.9057 57.0438 98.1235 56.7501C98.3412 56.4564 98.4906 56.0994 98.5716 55.6791H101.2C101.134 56.5045 100.891 57.2362 100.47 57.8742C100.05 58.5072 99.478 59.0034 98.7539 59.363C98.0298 59.7174 97.1791 59.8946 96.2018 59.8946ZM109.283 48.0001V50.1268H102.576V48.0001H109.283ZM104.232 45.205H106.982V56.1577C106.982 56.5273 107.037 56.8109 107.149 57.0084C107.265 57.2008 107.417 57.3324 107.605 57.4033C107.792 57.4742 108 57.5097 108.227 57.5097C108.4 57.5097 108.557 57.497 108.698 57.4717C108.845 57.4464 108.957 57.4236 109.033 57.4033L109.496 59.5528C109.349 59.6035 109.139 59.6592 108.865 59.7199C108.597 59.7807 108.268 59.8162 107.878 59.8263C107.189 59.8465 106.569 59.7427 106.017 59.5149C105.465 59.2819 105.027 58.9224 104.703 58.4363C104.384 57.9502 104.227 57.3426 104.232 56.6134V45.205ZM111.583 59.6668V48.0001H114.332V59.6668H111.583ZM112.965 46.3443C112.53 46.3443 112.155 46.2 111.841 45.9114C111.527 45.6177 111.37 45.2657 111.37 44.8556C111.37 44.4404 111.527 44.0884 111.841 43.7998C112.155 43.5061 112.53 43.3593 112.965 43.3593C113.406 43.3593 113.78 43.5061 114.089 43.7998C114.403 44.0884 114.56 44.4404 114.56 44.8556C114.56 45.2657 114.403 45.6177 114.089 45.9114C113.78 46.2 113.406 46.3443 112.965 46.3443ZM122.249 59.8946C121.109 59.8946 120.122 59.644 119.286 59.1427C118.451 58.6414 117.803 57.9401 117.342 57.0387C116.886 56.1374 116.658 55.0842 116.658 53.879C116.658 52.6739 116.886 51.6181 117.342 50.7117C117.803 49.8053 118.451 49.1015 119.286 48.6002C120.122 48.0989 121.109 47.8482 122.249 47.8482C123.388 47.8482 124.375 48.0989 125.211 48.6002C126.046 49.1015 126.692 49.8053 127.148 50.7117C127.609 51.6181 127.839 52.6739 127.839 53.879C127.839 55.0842 127.609 56.1374 127.148 57.0387C126.692 57.9401 126.046 58.6414 125.211 59.1427C124.375 59.644 123.388 59.8946 122.249 59.8946ZM122.264 57.692C122.882 57.692 123.398 57.5223 123.813 57.1831C124.229 56.8387 124.537 56.3779 124.74 55.8007C124.948 55.2234 125.051 54.5803 125.051 53.8714C125.051 53.1574 124.948 52.5118 124.74 51.9346C124.537 51.3523 124.229 50.8889 123.813 50.5446C123.398 50.2003 122.882 50.0281 122.264 50.0281C121.631 50.0281 121.104 50.2003 120.684 50.5446C120.269 50.8889 119.957 51.3523 119.75 51.9346C119.547 52.5118 119.446 53.1574 119.446 53.8714C119.446 54.5803 119.547 55.2234 119.75 55.8007C119.957 56.3779 120.269 56.8387 120.684 57.1831C121.104 57.5223 121.631 57.692 122.264 57.692ZM132.922 52.8308V59.6668H130.173V48.0001H132.801V49.9825H132.937C133.206 49.3293 133.634 48.8103 134.221 48.4255C134.813 48.0406 135.545 47.8482 136.416 47.8482C137.221 47.8482 137.923 48.0204 138.52 48.3647C139.123 48.709 139.589 49.2078 139.918 49.861C140.252 50.5142 140.416 51.3067 140.411 52.2384V59.6668H137.662V52.6637C137.662 51.8839 137.459 51.2738 137.054 50.8332C136.654 50.3927 136.1 50.1724 135.391 50.1724C134.91 50.1724 134.482 50.2788 134.107 50.4914C133.737 50.699 133.446 51.0003 133.234 51.3953C133.026 51.7903 132.922 52.2688 132.922 52.8308ZM152.427 51.0839L149.921 51.3573C149.85 51.1041 149.726 50.8661 149.549 50.6433C149.377 50.4205 149.144 50.2408 148.85 50.1041C148.556 49.9673 148.197 49.899 147.771 49.899C147.199 49.899 146.718 50.023 146.328 50.2712C145.943 50.5193 145.754 50.8408 145.759 51.2358C145.754 51.5751 145.878 51.851 146.131 52.0637C146.389 52.2764 146.814 52.4511 147.407 52.5878L149.397 53.0131C150.501 53.2511 151.321 53.6284 151.858 54.1449C152.4 54.6614 152.673 55.3374 152.678 56.1729C152.673 56.9071 152.458 57.5552 152.032 58.1173C151.612 58.6743 151.027 59.1098 150.278 59.4237C149.528 59.7377 148.668 59.8946 147.695 59.8946C146.267 59.8946 145.118 59.5959 144.247 58.9984C143.376 58.3958 142.857 57.5578 142.69 56.4843L145.371 56.226C145.493 56.7526 145.751 57.1501 146.146 57.4185C146.541 57.6869 147.055 57.8211 147.688 57.8211C148.341 57.8211 148.865 57.6869 149.26 57.4185C149.66 57.1501 149.86 56.8185 149.86 56.4235C149.86 56.0893 149.731 55.8133 149.473 55.5956C149.22 55.3779 148.825 55.2108 148.288 55.0943L146.298 54.6765C145.179 54.4436 144.351 54.0512 143.814 53.4992C143.277 52.9422 143.012 52.2384 143.017 51.3877C143.012 50.6687 143.206 50.0458 143.601 49.5192C144.001 48.9875 144.556 48.5774 145.265 48.2887C145.979 47.995 146.802 47.8482 147.733 47.8482C149.101 47.8482 150.177 48.1394 150.961 48.7217C151.751 49.304 152.24 50.0914 152.427 51.0839ZM170.672 48.0001L166.517 59.6668H163.479L159.324 48.0001H162.256L164.937 56.6666H165.059L167.748 48.0001H170.672ZM181.795 51.0839L179.289 51.3573C179.218 51.1041 179.094 50.8661 178.917 50.6433C178.745 50.4205 178.512 50.2408 178.218 50.1041C177.924 49.9673 177.565 49.899 177.139 49.899C176.567 49.899 176.086 50.023 175.696 50.2712C175.311 50.5193 175.121 50.8408 175.127 51.2358C175.121 51.5751 175.246 51.851 175.499 52.0637C175.757 52.2764 176.182 52.4511 176.775 52.5878L178.765 53.0131C179.869 53.2511 180.689 53.6284 181.226 54.1449C181.768 54.6614 182.041 55.3374 182.046 56.1729C182.041 56.9071 181.826 57.5552 181.4 58.1173C180.98 58.6743 180.395 59.1098 179.646 59.4237C178.896 59.7377 178.036 59.8946 177.063 59.8946C175.635 59.8946 174.486 59.5959 173.615 58.9984C172.744 58.3958 172.225 57.5578 172.058 56.4843L174.739 56.226C174.861 56.7526 175.119 57.1501 175.514 57.4185C175.909 57.6869 176.423 57.8211 177.056 57.8211C177.709 57.8211 178.233 57.6869 178.628 57.4185C179.028 57.1501 179.228 56.8185 179.228 56.4235C179.228 56.0893 179.099 55.8133 178.841 55.5956C178.588 55.3779 178.193 55.2108 177.656 55.0943L175.666 54.6765C174.547 54.4436 173.719 54.0512 173.182 53.4992C172.645 52.9422 172.379 52.2384 172.385 51.3877C172.379 50.6687 172.574 50.0458 172.969 49.5192C173.369 48.9875 173.924 48.5774 174.633 48.2887C175.347 47.995 176.17 47.8482 177.101 47.8482C178.469 47.8482 179.545 48.1394 180.329 48.7217C181.119 49.304 181.608 50.0914 181.795 51.0839ZM191.738 59.6668H188.73L194.206 44.1112H197.685L203.169 59.6668H200.161L196.007 47.3013H195.885L191.738 59.6668ZM191.837 53.5676H200.04V55.8311H191.837V53.5676ZM209.83 59.8946C208.666 59.8946 207.666 59.6389 206.83 59.1275C206 58.6161 205.359 57.9097 204.908 57.0084C204.463 56.102 204.24 55.0589 204.24 53.879C204.24 52.6941 204.468 51.6485 204.924 50.7421C205.379 49.8306 206.022 49.1217 206.853 48.6153C207.688 48.1039 208.676 47.8482 209.815 47.8482C210.762 47.8482 211.6 48.0229 212.329 48.3723C213.063 48.7166 213.648 49.2053 214.084 49.8382C214.519 50.4661 214.767 51.2003 214.828 52.0409H212.2C212.094 51.4788 211.841 51.0105 211.441 50.6357C211.046 50.256 210.516 50.0661 209.853 50.0661C209.291 50.0661 208.797 50.218 208.372 50.5218C207.947 50.8206 207.615 51.251 207.377 51.813C207.144 52.3751 207.028 53.0486 207.028 53.8334C207.028 54.6284 207.144 55.312 207.377 55.8842C207.61 56.4514 207.936 56.8894 208.357 57.1982C208.782 57.5021 209.281 57.654 209.853 57.654C210.258 57.654 210.62 57.578 210.939 57.4261C211.263 57.2691 211.534 57.0438 211.752 56.7501C211.97 56.4564 212.119 56.0994 212.2 55.6791H214.828C214.762 56.5045 214.519 57.2362 214.099 57.8742C213.679 58.5072 213.106 59.0034 212.382 59.363C211.658 59.7174 210.808 59.8946 209.83 59.8946ZM222.912 48.0001V50.1268H216.205V48.0001H222.912ZM217.861 45.205H220.61V56.1577C220.61 56.5273 220.666 56.8109 220.777 57.0084C220.894 57.2008 221.046 57.3324 221.233 57.4033C221.42 57.4742 221.628 57.5097 221.856 57.5097C222.028 57.5097 222.185 57.497 222.327 57.4717C222.474 57.4464 222.585 57.4236 222.661 57.4033L223.124 59.5528C222.977 59.6035 222.767 59.6592 222.494 59.7199C222.225 59.7807 221.896 59.8162 221.506 59.8263C220.818 59.8465 220.198 59.7427 219.646 59.5149C219.094 59.2819 218.656 58.9224 218.332 58.4363C218.013 57.9502 217.856 57.3426 217.861 56.6134V45.205ZM232.647 54.7601V48.0001H235.397V59.6668H232.731V57.5932H232.609C232.346 58.2464 231.913 58.7806 231.31 59.1959C230.713 59.6111 229.976 59.8187 229.1 59.8187C228.335 59.8187 227.659 59.6491 227.072 59.3098C226.49 58.9655 226.034 58.4667 225.705 57.8135C225.376 57.1552 225.211 56.3602 225.211 55.4285V48.0001H227.961V55.0031C227.961 55.7424 228.163 56.3298 228.568 56.7653C228.973 57.2008 229.505 57.4185 230.163 57.4185C230.569 57.4185 230.961 57.3198 231.341 57.1223C231.72 56.9248 232.032 56.6311 232.275 56.2412C232.523 55.8462 232.647 55.3525 232.647 54.7601ZM241.581 59.9022C240.842 59.9022 240.176 59.7706 239.584 59.5073C238.996 59.2389 238.53 58.8439 238.186 58.3224C237.847 57.8008 237.677 57.1577 237.677 56.3931C237.677 55.7348 237.799 55.1905 238.042 54.7601C238.285 54.3297 238.617 53.9854 239.037 53.7271C239.457 53.4689 239.931 53.2739 240.457 53.1423C240.989 53.0055 241.538 52.9068 242.105 52.846C242.789 52.7751 243.343 52.7118 243.769 52.6561C244.194 52.5954 244.503 52.5042 244.695 52.3827C244.893 52.2561 244.992 52.0612 244.992 51.7979V51.7523C244.992 51.1801 244.822 50.737 244.483 50.4231C244.144 50.1091 243.655 49.9522 243.017 49.9522C242.343 49.9522 241.809 50.099 241.414 50.3927C241.024 50.6864 240.761 51.0332 240.624 51.4333L238.057 51.0687C238.26 50.3598 238.594 49.7673 239.06 49.2913C239.525 48.8103 240.095 48.4508 240.769 48.2128C241.442 47.9697 242.186 47.8482 243.002 47.8482C243.564 47.8482 244.123 47.914 244.68 48.0457C245.237 48.1773 245.746 48.3951 246.207 48.6989C246.668 48.9977 247.037 49.4053 247.316 49.9218C247.599 50.4383 247.741 51.0839 247.741 51.8586V59.6668H245.098V58.0641H245.007C244.84 58.3882 244.604 58.692 244.301 58.9756C244.002 59.2541 243.625 59.4794 243.169 59.6516C242.718 59.8187 242.189 59.9022 241.581 59.9022ZM242.295 57.8818C242.847 57.8818 243.326 57.773 243.731 57.5552C244.136 57.3324 244.447 57.0387 244.665 56.6742C244.888 56.3096 244.999 55.9121 244.999 55.4817V54.1069C244.913 54.1778 244.766 54.2436 244.559 54.3044C244.356 54.3651 244.128 54.4183 243.875 54.4639C243.622 54.5094 243.371 54.55 243.123 54.5854C242.875 54.6208 242.66 54.6512 242.478 54.6765C242.067 54.7322 241.7 54.8234 241.376 54.95C241.052 55.0766 240.796 55.2538 240.609 55.4817C240.422 55.7045 240.328 55.9931 240.328 56.3476C240.328 56.8539 240.513 57.2362 240.883 57.4945C241.252 57.7527 241.723 57.8818 242.295 57.8818ZM253.256 44.1112V59.6668H250.506V44.1112H253.256ZM265.304 51.0839L262.797 51.3573C262.727 51.1041 262.602 50.8661 262.425 50.6433C262.253 50.4205 262.02 50.2408 261.726 50.1041C261.433 49.9673 261.073 49.899 260.648 49.899C260.076 49.899 259.595 50.023 259.205 50.2712C258.82 50.5193 258.63 50.8408 258.635 51.2358C258.63 51.5751 258.754 51.851 259.007 52.0637C259.266 52.2764 259.691 52.4511 260.283 52.5878L262.273 53.0131C263.377 53.2511 264.198 53.6284 264.734 54.1449C265.276 54.6614 265.55 55.3374 265.555 56.1729C265.55 56.9071 265.334 57.5552 264.909 58.1173C264.489 58.6743 263.904 59.1098 263.154 59.4237C262.405 59.7377 261.544 59.8946 260.572 59.8946C259.144 59.8946 257.995 59.5959 257.124 58.9984C256.253 58.3958 255.734 57.5578 255.567 56.4843L258.248 56.226C258.369 56.7526 258.628 57.1501 259.022 57.4185C259.417 57.6869 259.931 57.8211 260.564 57.8211C261.218 57.8211 261.742 57.6869 262.137 57.4185C262.537 57.1501 262.737 56.8185 262.737 56.4235C262.737 56.0893 262.608 55.8133 262.349 55.5956C262.096 55.3779 261.701 55.2108 261.164 55.0943L259.174 54.6765C258.055 54.4436 257.227 54.0512 256.691 53.4992C256.154 52.9422 255.888 52.2384 255.893 51.3877C255.888 50.6687 256.083 50.0458 256.478 49.5192C256.878 48.9875 257.432 48.5774 258.141 48.2887C258.855 47.995 259.678 47.8482 260.61 47.8482C261.977 47.8482 263.053 48.1394 263.838 48.7217C264.628 49.304 265.117 50.0914 265.304 51.0839Z" fill="#1C1C1C"/>
<path d="M42.2123 111.32C41.353 111.32 40.5869 111.173 39.9142 110.878C39.2458 110.582 38.7141 110.172 38.3191 109.647C37.9285 109.118 37.7158 108.503 37.6811 107.805H39.3217C39.3564 108.234 39.504 108.605 39.7644 108.918C40.0248 109.226 40.3656 109.465 40.7866 109.634C41.2076 109.803 41.6741 109.888 42.1863 109.888C42.7592 109.888 43.267 109.788 43.7097 109.589C44.1524 109.389 44.4997 109.111 44.7514 108.755C45.0031 108.399 45.129 107.987 45.129 107.518C45.129 107.028 45.0075 106.596 44.7644 106.223C44.5214 105.845 44.1655 105.55 43.6967 105.337C43.228 105.125 42.655 105.018 41.978 105.018H40.9103V103.586H41.978C42.5075 103.586 42.9719 103.49 43.3712 103.299C43.7748 103.108 44.0895 102.839 44.3152 102.492C44.5452 102.145 44.6603 101.737 44.6603 101.268C44.6603 100.817 44.5604 100.424 44.3608 100.09C44.1611 99.7556 43.879 99.4952 43.5144 99.3086C43.1542 99.1219 42.7288 99.0286 42.2384 99.0286C41.7783 99.0286 41.3443 99.1133 40.9363 99.2825C40.5327 99.4475 40.2028 99.6883 39.9467 100.005C39.6906 100.318 39.5518 100.695 39.53 101.138H37.9675C37.9936 100.439 38.2041 99.8272 38.5991 99.3021C38.994 98.7725 39.5105 98.3602 40.1485 98.0651C40.7909 97.7699 41.4962 97.6224 42.2644 97.6224C43.0891 97.6224 43.7965 97.7895 44.3868 98.1237C44.9771 98.4535 45.4307 98.8897 45.7475 99.4323C46.0643 99.9748 46.2228 100.561 46.2228 101.19C46.2228 101.941 46.0253 102.581 45.6303 103.111C45.2397 103.64 44.708 104.007 44.0353 104.211V104.315C44.8773 104.454 45.5348 104.812 46.0079 105.389C46.481 105.962 46.7175 106.672 46.7175 107.518C46.7175 108.243 46.5201 108.894 46.1251 109.471C45.7345 110.044 45.2006 110.496 44.5235 110.826C43.8465 111.155 43.0761 111.32 42.2123 111.32ZM53.7293 111.32C52.7484 111.32 51.9129 111.053 51.2228 110.52C50.5327 109.981 50.0053 109.202 49.6407 108.182C49.2761 107.158 49.0939 105.921 49.0939 104.471C49.0939 103.03 49.2761 101.8 49.6407 100.78C50.0096 99.7556 50.5392 98.9744 51.2293 98.4362C51.9237 97.8936 52.757 97.6224 53.7293 97.6224C54.7015 97.6224 55.5327 97.8936 56.2228 98.4362C56.9172 98.9744 57.4467 99.7556 57.8113 100.78C58.1802 101.8 58.3647 103.03 58.3647 104.471C58.3647 105.921 58.1824 107.158 57.8178 108.182C57.4532 109.202 56.9259 109.981 56.2358 110.52C55.5457 111.053 54.7102 111.32 53.7293 111.32ZM53.7293 109.888C54.7015 109.888 55.4567 109.419 55.9949 108.482C56.5331 107.544 56.8022 106.207 56.8022 104.471C56.8022 103.317 56.6785 102.334 56.4311 101.522C56.188 100.71 55.8365 100.092 55.3764 99.6666C54.9207 99.2413 54.3716 99.0286 53.7293 99.0286C52.7657 99.0286 52.0127 99.5039 51.4702 100.454C50.9276 101.401 50.6564 102.74 50.6564 104.471C50.6564 105.626 50.7779 106.607 51.0209 107.414C51.264 108.221 51.6134 108.835 52.0691 109.256C52.5292 109.677 53.0826 109.888 53.7293 109.888Z" fill="black" fill-opacity="0.4"/>
<path d="M38.28 171.916V170.744L42.6811 165.926C43.1976 165.362 43.6229 164.871 43.9571 164.455C44.2913 164.034 44.5387 163.639 44.6993 163.27C44.8643 162.897 44.9467 162.506 44.9467 162.098C44.9467 161.629 44.8339 161.223 44.6082 160.881C44.3868 160.538 44.083 160.273 43.6967 160.086C43.3104 159.9 42.8764 159.806 42.3946 159.806C41.8825 159.806 41.4354 159.913 41.0535 160.125C40.6759 160.334 40.3829 160.627 40.1746 161.004C39.9706 161.382 39.8686 161.825 39.8686 162.332H38.3321C38.3321 161.551 38.5123 160.865 38.8725 160.275C39.2327 159.685 39.7232 159.225 40.3439 158.895C40.9689 158.565 41.6698 158.4 42.4467 158.4C43.228 158.4 43.9202 158.565 44.5235 158.895C45.1268 159.225 45.5999 159.67 45.9428 160.23C46.2857 160.789 46.4571 161.412 46.4571 162.098C46.4571 162.589 46.3682 163.068 46.1902 163.537C46.0166 164.001 45.7128 164.52 45.2787 165.093C44.8491 165.661 44.2523 166.356 43.4884 167.176L40.4936 170.379V170.483H46.6915V171.916H38.28ZM53.7293 172.098C52.7484 172.098 51.9129 171.831 51.2228 171.297C50.5327 170.759 50.0053 169.98 49.6407 168.96C49.2761 167.936 49.0939 166.699 49.0939 165.249C49.0939 163.808 49.2761 162.578 49.6407 161.558C50.0097 160.533 50.5392 159.752 51.2293 159.214C51.9237 158.671 52.757 158.4 53.7293 158.4C54.7015 158.4 55.5327 158.671 56.2228 159.214C56.9172 159.752 57.4467 160.533 57.8113 161.558C58.1802 162.578 58.3647 163.808 58.3647 165.249C58.3647 166.699 58.1824 167.936 57.8178 168.96C57.4532 169.98 56.9259 170.759 56.2358 171.297C55.5457 171.831 54.7102 172.098 53.7293 172.098ZM53.7293 170.666C54.7015 170.666 55.4567 170.197 55.9949 169.26C56.5331 168.322 56.8022 166.985 56.8022 165.249C56.8022 164.095 56.6785 163.112 56.4311 162.3C56.188 161.488 55.8365 160.87 55.3764 160.444C54.9207 160.019 54.3716 159.806 53.7293 159.806C52.7657 159.806 52.0127 160.282 51.4702 161.232C50.9276 162.178 50.6564 163.517 50.6564 165.249C50.6564 166.404 50.7779 167.385 51.0209 168.192C51.264 168.999 51.6134 169.613 52.0691 170.034C52.5292 170.455 53.0826 170.666 53.7293 170.666Z" fill="black" fill-opacity="0.4"/>
<path d="M45.5457 219.36V232.694H43.9311V221.053H43.853L40.5978 223.214V221.574L43.9311 219.36H45.5457ZM53.7293 232.876C52.7484 232.876 51.9129 232.609 51.2228 232.075C50.5327 231.537 50.0053 230.758 49.6407 229.738C49.2761 228.714 49.0939 227.477 49.0939 226.027C49.0939 224.586 49.2761 223.355 49.6407 222.335C50.0097 221.311 50.5392 220.53 51.2293 219.992C51.9237 219.449 52.757 219.178 53.7293 219.178C54.7015 219.178 55.5327 219.449 56.2228 219.992C56.9172 220.53 57.4467 221.311 57.8113 222.335C58.1802 223.355 58.3647 224.586 58.3647 226.027C58.3647 227.477 58.1824 228.714 57.8178 229.738C57.4532 230.758 56.9259 231.537 56.2358 232.075C55.5457 232.609 54.7102 232.876 53.7293 232.876ZM53.7293 231.444C54.7015 231.444 55.4567 230.975 55.9949 230.037C56.5331 229.1 56.8022 227.763 56.8022 226.027C56.8022 224.872 56.6785 223.889 56.4311 223.078C56.188 222.266 55.8365 221.648 55.3764 221.222C54.9207 220.797 54.3716 220.584 53.7293 220.584C52.7657 220.584 52.0127 221.059 51.4702 222.01C50.9276 222.956 50.6564 224.295 50.6564 226.027C50.6564 227.181 50.7779 228.162 51.0209 228.97C51.264 229.777 51.6134 230.391 52.0691 230.812C52.5292 231.233 53.0826 231.444 53.7293 231.444Z" fill="black" fill-opacity="0.4"/>
<path d="M53.7293 293.654C52.7484 293.654 51.9129 293.387 51.2228 292.853C50.5327 292.315 50.0053 291.536 49.6407 290.516C49.2761 289.491 49.0939 288.254 49.0939 286.805C49.0939 285.364 49.2761 284.133 49.6407 283.113C50.0096 282.089 50.5392 281.308 51.2293 280.769C51.9237 280.227 52.757 279.956 53.7293 279.956C54.7015 279.956 55.5327 280.227 56.2228 280.769C56.9172 281.308 57.4467 282.089 57.8113 283.113C58.1802 284.133 58.3647 285.364 58.3647 286.805C58.3647 288.254 58.1824 289.491 57.8178 290.516C57.4532 291.536 56.9259 292.315 56.2358 292.853C55.5457 293.387 54.7102 293.654 53.7293 293.654ZM53.7293 292.221C54.7015 292.221 55.4567 291.753 55.9949 290.815C56.5331 289.878 56.8022 288.541 56.8022 286.805C56.8022 285.65 56.6785 284.667 56.4311 283.855C56.188 283.044 55.8365 282.425 55.3764 282C54.9207 281.575 54.3716 281.362 53.7293 281.362C52.7657 281.362 52.0127 281.837 51.4702 282.788C50.9276 283.734 50.6564 285.073 50.6564 286.805C50.6564 287.959 50.7779 288.94 51.0209 289.747C51.264 290.555 51.6134 291.169 52.0691 291.59C52.5292 292.011 53.0826 292.221 53.7293 292.221Z" fill="black" fill-opacity="0.4"/>
<line x1="84.6668" y1="114.819" x2="621.361" y2="114.819" stroke="black" stroke-opacity="0.05" stroke-width="1.52778" stroke-linecap="round"/>
<line x1="84.6668" y1="176.948" x2="621.361" y2="176.948" stroke="black" stroke-opacity="0.05" stroke-width="1.52778" stroke-linecap="round"/>
<line x1="84.6668" y1="239.078" x2="621.361" y2="239.078" stroke="black" stroke-opacity="0.05" stroke-width="1.52778" stroke-linecap="round"/>
<line x1="84.6668" y1="301.207" x2="621.361" y2="301.207" stroke="black" stroke-opacity="0.2" stroke-width="1.52778" stroke-linecap="round"/>
<path d="M119.969 326.971H121.584V336.503C121.584 337.353 121.427 338.076 121.115 338.671C120.802 339.265 120.362 339.717 119.793 340.025C119.225 340.333 118.554 340.487 117.781 340.487C117.052 340.487 116.403 340.355 115.835 340.09C115.266 339.821 114.819 339.439 114.494 338.944C114.168 338.449 114.005 337.861 114.005 337.18H115.594C115.594 337.557 115.687 337.887 115.874 338.169C116.065 338.447 116.325 338.664 116.655 338.82C116.985 338.977 117.36 339.055 117.781 339.055C118.246 339.055 118.641 338.957 118.966 338.762C119.292 338.566 119.539 338.28 119.709 337.902C119.882 337.52 119.969 337.054 119.969 336.503V326.971ZM127.554 340.539C126.92 340.539 126.345 340.42 125.828 340.181C125.312 339.938 124.902 339.589 124.598 339.133C124.294 338.673 124.142 338.117 124.142 337.466C124.142 336.893 124.255 336.429 124.481 336.073C124.706 335.713 125.008 335.431 125.386 335.227C125.763 335.023 126.18 334.871 126.636 334.771C127.096 334.667 127.558 334.584 128.022 334.523C128.63 334.445 129.123 334.387 129.5 334.348C129.882 334.304 130.16 334.233 130.334 334.133C130.511 334.033 130.6 333.859 130.6 333.612V333.56C130.6 332.918 130.425 332.418 130.073 332.062C129.726 331.707 129.199 331.529 128.491 331.529C127.758 331.529 127.182 331.689 126.766 332.01C126.349 332.332 126.056 332.674 125.887 333.039L124.429 332.518C124.689 331.911 125.036 331.437 125.47 331.099C125.909 330.756 126.386 330.517 126.903 330.383C127.423 330.244 127.936 330.174 128.439 330.174C128.76 330.174 129.129 330.214 129.546 330.292C129.967 330.365 130.373 330.52 130.763 330.754C131.158 330.988 131.486 331.342 131.746 331.815C132.007 332.288 132.137 332.922 132.137 333.716V340.305H130.6V338.951H130.522C130.418 339.168 130.245 339.4 130.001 339.647C129.758 339.895 129.435 340.105 129.031 340.279C128.628 340.452 128.135 340.539 127.554 340.539ZM127.788 339.159C128.396 339.159 128.908 339.039 129.324 338.801C129.745 338.562 130.062 338.254 130.275 337.876C130.492 337.499 130.6 337.102 130.6 336.685V335.279C130.535 335.357 130.392 335.428 130.171 335.493C129.954 335.554 129.702 335.609 129.416 335.656C129.133 335.7 128.858 335.739 128.589 335.773C128.324 335.804 128.109 335.83 127.944 335.852C127.545 335.904 127.172 335.988 126.824 336.105C126.482 336.218 126.204 336.39 125.991 336.62C125.783 336.845 125.679 337.154 125.679 337.544C125.679 338.078 125.876 338.482 126.271 338.755C126.67 339.024 127.176 339.159 127.788 339.159ZM136.478 334.289V340.305H134.941V330.305H136.426V331.867H136.556C136.79 331.359 137.146 330.951 137.624 330.643C138.101 330.331 138.717 330.174 139.473 330.174C140.15 330.174 140.742 330.313 141.25 330.591C141.758 330.865 142.153 331.281 142.435 331.841C142.717 332.397 142.858 333.1 142.858 333.951V340.305H141.321V334.055C141.321 333.269 141.117 332.657 140.709 332.219C140.301 331.776 139.742 331.555 139.03 331.555C138.539 331.555 138.101 331.661 137.715 331.874C137.333 332.086 137.031 332.397 136.81 332.805C136.588 333.213 136.478 333.707 136.478 334.289Z" fill="black" fill-opacity="0.4"/>
<path d="M204.031 340.305V326.971H212.026V328.404H205.646V332.909H211.427V334.341H205.646V340.305H204.031ZM218.042 340.513C217.078 340.513 216.247 340.3 215.548 339.875C214.854 339.445 214.318 338.846 213.94 338.078C213.567 337.306 213.38 336.407 213.38 335.383C213.38 334.359 213.567 333.456 213.94 332.674C214.318 331.889 214.843 331.277 215.516 330.839C216.193 330.396 216.983 330.174 217.886 330.174C218.406 330.174 218.921 330.261 219.428 330.435C219.936 330.609 220.399 330.891 220.815 331.281C221.232 331.668 221.564 332.18 221.811 332.818C222.059 333.456 222.182 334.241 222.182 335.174V335.826H214.474V334.497H220.62C220.62 333.933 220.507 333.43 220.281 332.987C220.06 332.544 219.743 332.195 219.331 331.939C218.923 331.683 218.441 331.555 217.886 331.555C217.274 331.555 216.744 331.707 216.297 332.01C215.854 332.31 215.514 332.701 215.275 333.182C215.036 333.664 214.917 334.181 214.917 334.732V335.617C214.917 336.372 215.047 337.013 215.307 337.538C215.572 338.059 215.939 338.456 216.408 338.729C216.876 338.998 217.421 339.133 218.042 339.133C218.445 339.133 218.81 339.076 219.136 338.964C219.465 338.846 219.75 338.673 219.988 338.443C220.227 338.208 220.412 337.918 220.542 337.57L222.026 337.987C221.87 338.49 221.607 338.933 221.238 339.315C220.869 339.693 220.414 339.988 219.871 340.201C219.329 340.409 218.719 340.513 218.042 340.513ZM224.728 340.305V326.971H226.264V331.893H226.395C226.507 331.72 226.664 331.498 226.863 331.229C227.067 330.956 227.358 330.713 227.736 330.5C228.118 330.283 228.634 330.174 229.285 330.174C230.127 330.174 230.869 330.385 231.512 330.806C232.154 331.227 232.655 331.824 233.016 332.596C233.376 333.369 233.556 334.28 233.556 335.331C233.556 336.39 233.376 337.308 233.016 338.085C232.655 338.857 232.156 339.456 231.518 339.882C230.88 340.303 230.145 340.513 229.311 340.513C228.669 340.513 228.155 340.407 227.768 340.194C227.382 339.977 227.085 339.732 226.876 339.458C226.668 339.181 226.507 338.951 226.395 338.768H226.212V340.305H224.728ZM226.238 335.305C226.238 336.06 226.349 336.726 226.57 337.303C226.792 337.876 227.115 338.326 227.54 338.651C227.966 338.972 228.487 339.133 229.103 339.133C229.745 339.133 230.281 338.964 230.711 338.625C231.145 338.282 231.471 337.822 231.688 337.245C231.909 336.663 232.02 336.016 232.02 335.305C232.02 334.602 231.911 333.968 231.694 333.404C231.481 332.835 231.158 332.386 230.724 332.056C230.294 331.722 229.754 331.555 229.103 331.555C228.478 331.555 227.953 331.713 227.527 332.03C227.102 332.342 226.781 332.781 226.564 333.345C226.347 333.905 226.238 334.558 226.238 335.305Z" fill="black" fill-opacity="0.4"/>
<path d="M293.046 326.971H294.973L299.504 338.039H299.66L304.192 326.971H306.119V340.305H304.608V330.174H304.478L300.311 340.305H298.853L294.686 330.174H294.556V340.305H293.046V326.971ZM312.09 340.539C311.457 340.539 310.882 340.42 310.365 340.181C309.849 339.938 309.438 339.589 309.135 339.133C308.831 338.673 308.679 338.117 308.679 337.466C308.679 336.893 308.792 336.429 309.017 336.073C309.243 335.713 309.545 335.431 309.922 335.227C310.3 335.023 310.717 334.871 311.172 334.771C311.632 334.667 312.095 334.584 312.559 334.523C313.167 334.445 313.659 334.387 314.037 334.348C314.419 334.304 314.697 334.233 314.87 334.133C315.048 334.033 315.137 333.859 315.137 333.612V333.56C315.137 332.918 314.961 332.418 314.61 332.062C314.263 331.707 313.735 331.529 313.028 331.529C312.294 331.529 311.719 331.689 311.303 332.01C310.886 332.332 310.593 332.674 310.424 333.039L308.965 332.518C309.226 331.911 309.573 331.437 310.007 331.099C310.445 330.756 310.923 330.517 311.439 330.383C311.96 330.244 312.472 330.174 312.976 330.174C313.297 330.174 313.666 330.214 314.083 330.292C314.504 330.365 314.909 330.52 315.3 330.754C315.695 330.988 316.023 331.342 316.283 331.815C316.543 332.288 316.674 332.922 316.674 333.716V340.305H315.137V338.951H315.059C314.955 339.168 314.781 339.4 314.538 339.647C314.295 339.895 313.972 340.105 313.568 340.279C313.165 340.452 312.672 340.539 312.09 340.539ZM312.325 339.159C312.932 339.159 313.445 339.039 313.861 338.801C314.282 338.562 314.599 338.254 314.812 337.876C315.029 337.499 315.137 337.102 315.137 336.685V335.279C315.072 335.357 314.929 335.428 314.708 335.493C314.491 335.554 314.239 335.609 313.952 335.656C313.67 335.7 313.395 335.739 313.126 335.773C312.861 335.804 312.646 335.83 312.481 335.852C312.082 335.904 311.708 335.988 311.361 336.105C311.018 336.218 310.741 336.39 310.528 336.62C310.32 336.845 310.215 337.154 310.215 337.544C310.215 338.078 310.413 338.482 310.808 338.755C311.207 339.024 311.713 339.159 312.325 339.159ZM319.478 340.305V330.305H320.962V331.815H321.067C321.249 331.32 321.579 330.919 322.056 330.611C322.534 330.303 323.072 330.148 323.671 330.148C323.784 330.148 323.925 330.151 324.094 330.155C324.263 330.159 324.391 330.166 324.478 330.174V331.737C324.426 331.724 324.307 331.704 324.12 331.678C323.938 331.648 323.745 331.633 323.541 331.633C323.054 331.633 322.62 331.735 322.238 331.939C321.861 332.138 321.561 332.416 321.34 332.772C321.123 333.124 321.015 333.525 321.015 333.977V340.305H319.478Z" fill="black" fill-opacity="0.4"/>
<path d="M384.836 340.305H383.143L388.039 326.971H389.706L394.602 340.305H392.909L388.925 329.081H388.82L384.836 340.305ZM385.461 335.096H392.284V336.529H385.461V335.096ZM396.47 344.055V330.305H397.955V331.893H398.137C398.25 331.72 398.406 331.498 398.606 331.229C398.81 330.956 399.1 330.713 399.478 330.5C399.86 330.283 400.376 330.174 401.027 330.174C401.869 330.174 402.612 330.385 403.254 330.806C403.896 331.227 404.398 331.824 404.758 332.596C405.118 333.369 405.298 334.28 405.298 335.331C405.298 336.39 405.118 337.308 404.758 338.085C404.398 338.857 403.899 339.456 403.261 339.882C402.623 340.303 401.887 340.513 401.054 340.513C400.411 340.513 399.897 340.407 399.511 340.194C399.124 339.977 398.827 339.732 398.619 339.458C398.41 339.181 398.25 338.951 398.137 338.768H398.007V344.055H396.47ZM397.981 335.305C397.981 336.06 398.091 336.726 398.313 337.303C398.534 337.876 398.857 338.326 399.283 338.651C399.708 338.972 400.229 339.133 400.845 339.133C401.488 339.133 402.024 338.964 402.453 338.625C402.887 338.282 403.213 337.822 403.43 337.245C403.651 336.663 403.762 336.016 403.762 335.305C403.762 334.602 403.653 333.968 403.436 333.404C403.224 332.835 402.9 332.386 402.466 332.056C402.037 331.722 401.496 331.555 400.845 331.555C400.22 331.555 399.695 331.713 399.27 332.03C398.844 332.342 398.523 332.781 398.306 333.345C398.089 333.905 397.981 334.558 397.981 335.305ZM407.642 340.305V330.305H409.126V331.815H409.231C409.413 331.32 409.743 330.919 410.22 330.611C410.698 330.303 411.236 330.148 411.835 330.148C411.948 330.148 412.089 330.151 412.258 330.155C412.427 330.159 412.555 330.166 412.642 330.174V331.737C412.59 331.724 412.471 331.704 412.284 331.678C412.102 331.648 411.909 331.633 411.705 331.633C411.218 331.633 410.784 331.735 410.402 331.939C410.025 332.138 409.725 332.416 409.504 332.772C409.287 333.124 409.179 333.525 409.179 333.977V340.305H407.642Z" fill="black" fill-opacity="0.4"/>
<path d="M470.94 326.971H472.867L477.399 338.039H477.555L482.086 326.971H484.013V340.305H482.503V330.174H482.373L478.206 340.305H476.748L472.581 330.174H472.451V340.305H470.94V326.971ZM489.985 340.539C489.351 340.539 488.776 340.42 488.26 340.181C487.743 339.938 487.333 339.589 487.029 339.133C486.725 338.673 486.573 338.117 486.573 337.466C486.573 336.893 486.686 336.429 486.912 336.073C487.138 335.713 487.439 335.431 487.817 335.227C488.195 335.023 488.611 334.871 489.067 334.771C489.527 334.667 489.989 334.584 490.454 334.523C491.061 334.445 491.554 334.387 491.932 334.348C492.313 334.304 492.591 334.233 492.765 334.133C492.943 334.033 493.032 333.859 493.032 333.612V333.56C493.032 332.918 492.856 332.418 492.504 332.062C492.157 331.707 491.63 331.529 490.922 331.529C490.189 331.529 489.614 331.689 489.197 332.01C488.78 332.332 488.488 332.674 488.318 333.039L486.86 332.518C487.12 331.911 487.468 331.437 487.902 331.099C488.34 330.756 488.817 330.517 489.334 330.383C489.855 330.244 490.367 330.174 490.87 330.174C491.192 330.174 491.56 330.214 491.977 330.292C492.398 330.365 492.804 330.52 493.195 330.754C493.59 330.988 493.917 331.342 494.178 331.815C494.438 332.288 494.568 332.922 494.568 333.716V340.305H493.032V338.951H492.954C492.849 339.168 492.676 339.4 492.433 339.647C492.19 339.895 491.866 340.105 491.463 340.279C491.059 340.452 490.567 340.539 489.985 340.539ZM490.219 339.159C490.827 339.159 491.339 339.039 491.756 338.801C492.177 338.562 492.494 338.254 492.706 337.876C492.923 337.499 493.032 337.102 493.032 336.685V335.279C492.967 335.357 492.823 335.428 492.602 335.493C492.385 335.554 492.133 335.609 491.847 335.656C491.565 335.7 491.289 335.739 491.02 335.773C490.755 335.804 490.54 335.83 490.376 335.852C489.976 335.904 489.603 335.988 489.256 336.105C488.913 336.218 488.635 336.39 488.422 336.62C488.214 336.845 488.11 337.154 488.11 337.544C488.11 338.078 488.307 338.482 488.702 338.755C489.102 339.024 489.607 339.159 490.219 339.159ZM498.004 344.055C497.744 344.055 497.511 344.033 497.308 343.99C497.104 343.951 496.962 343.911 496.884 343.872L497.275 342.518C497.648 342.614 497.978 342.648 498.265 342.622C498.551 342.596 498.805 342.468 499.026 342.238C499.252 342.013 499.458 341.646 499.645 341.138L499.931 340.357L496.233 330.305H497.9L500.66 338.273H500.765L503.525 330.305H505.192L500.947 341.763C500.756 342.28 500.519 342.707 500.237 343.046C499.955 343.388 499.627 343.642 499.254 343.807C498.885 343.972 498.469 344.055 498.004 344.055Z" fill="black" fill-opacity="0.4"/>
<path d="M568.326 326.971H569.941V336.503C569.941 337.353 569.785 338.076 569.472 338.671C569.16 339.265 568.719 339.717 568.151 340.025C567.582 340.333 566.911 340.487 566.139 340.487C565.41 340.487 564.761 340.355 564.192 340.09C563.624 339.821 563.177 339.439 562.851 338.944C562.526 338.449 562.363 337.861 562.363 337.18H563.951C563.951 337.557 564.045 337.887 564.231 338.169C564.422 338.447 564.683 338.664 565.013 338.82C565.342 338.977 565.718 339.055 566.139 339.055C566.603 339.055 566.998 338.957 567.324 338.762C567.649 338.566 567.897 338.28 568.066 337.902C568.24 337.52 568.326 337.054 568.326 336.503V326.971ZM579.27 336.216V330.305H580.807V340.305H579.27V338.612H579.166C578.932 339.12 578.567 339.552 578.072 339.908C577.578 340.259 576.953 340.435 576.197 340.435C575.572 340.435 575.017 340.298 574.531 340.025C574.045 339.747 573.663 339.33 573.385 338.775C573.107 338.215 572.968 337.51 572.968 336.659V330.305H574.505V336.555C574.505 337.284 574.709 337.865 575.117 338.299C575.529 338.734 576.054 338.951 576.692 338.951C577.074 338.951 577.463 338.853 577.858 338.658C578.257 338.462 578.591 338.163 578.86 337.759C579.134 337.355 579.27 336.841 579.27 336.216ZM585.157 334.289V340.305H583.621V330.305H585.105V331.867H585.235C585.47 331.359 585.826 330.951 586.303 330.643C586.781 330.331 587.397 330.174 588.152 330.174C588.829 330.174 589.422 330.313 589.93 330.591C590.437 330.865 590.832 331.281 591.114 331.841C591.397 332.397 591.538 333.1 591.538 333.951V340.305H590.001V334.055C590.001 333.269 589.797 332.657 589.389 332.219C588.981 331.776 588.421 331.555 587.709 331.555C587.219 331.555 586.781 331.661 586.394 331.874C586.012 332.086 585.711 332.397 585.489 332.805C585.268 333.213 585.157 333.707 585.157 334.289Z" fill="black" fill-opacity="0.4"/>
<g opacity="0.5">
<path d="M114.583 149.723C114.583 146.348 117.319 143.612 120.694 143.612H135.972C139.347 143.612 142.083 146.348 142.083 149.723V300.973H114.583V149.723Z" fill="#255CFF"/>
<path d="M204.722 195.556C204.722 192.181 207.458 189.445 210.833 189.445H226.111C229.486 189.445 232.222 192.181 232.222 195.556V300.973H204.722V195.556Z" fill="#255CFF"/>
<path d="M294.861 111.528C294.861 108.153 297.597 105.417 300.972 105.417H316.25C319.625 105.417 322.361 108.153 322.361 111.528V300.972H294.861V111.528Z" fill="#255CFF"/>
<path d="M385 212.362C385 208.987 387.736 206.25 391.111 206.25H406.389C409.764 206.25 412.5 208.987 412.5 212.362V300.973H385V212.362Z" fill="#255CFF"/>
<path d="M475.139 157.361C475.139 153.986 477.875 151.25 481.25 151.25H496.528C499.903 151.25 502.639 153.986 502.639 157.361V300.973H475.139V157.361Z" fill="#255CFF"/>
<path d="M565.278 230.695C565.278 227.32 568.014 224.584 571.389 224.584H586.666C590.041 224.584 592.778 227.32 592.778 230.695V300.973H565.278V230.695Z" fill="#255CFF"/>
</g>
<path d="M114.583 175.694H142.083V300.972H114.583V175.694Z" fill="#255CFF"/>
<path d="M204.722 230.694H232.222V300.972H204.722V230.694Z" fill="#255CFF"/>
<path d="M294.861 129.861H322.361V300.972H294.861V129.861Z" fill="#255CFF"/>
<path d="M385 239.861H412.5V300.972H385V239.861Z" fill="#255CFF"/>
<path d="M475.139 194.028H502.639V300.972H475.139V194.028Z" fill="#255CFF"/>
<path d="M565.278 239.861H592.778V300.972H565.278V239.861Z" fill="#255CFF"/>
</svg>
